<svg width="27" height="27" viewBox="0 0 27 27" fill="none" xmlns="http://www.w3.org/2000/svg">
    <path opacity="0.7" d="M1.80859 11.8421C1.80859 13.0683 1.80859 13.6813 2.00891 14.165C2.276 14.8098 2.7883 15.3221 3.43311 15.5892C3.91672 15.7895 4.5298 15.7895 5.75596 15.7895H6.6447C7.40919 15.7895 7.79143 15.7895 8.09658 15.9655C8.17366 16.0099 8.24602 16.0621 8.31257 16.1212C8.57604 16.355 8.69691 16.7176 8.93867 17.4429L9.10352 17.9374C9.393 18.8059 9.53774 19.2401 9.88233 19.4885C10.2269 19.7368 10.6846 19.7368 11.6001 19.7368H15.7013C16.6167 19.7368 17.0744 19.7368 17.419 19.4885C17.7636 19.2401 17.9084 18.8059 18.1978 17.9374L18.3627 17.4429C18.6045 16.7176 18.7253 16.355 18.9888 16.1212C19.0554 16.0621 19.1277 16.0099 19.2048 15.9655C19.5099 15.7895 19.8922 15.7895 20.6567 15.7895H21.5454C22.7716 15.7895 23.3847 15.7895 23.8683 15.5892C24.5131 15.3221 25.0254 14.8098 25.2925 14.165C25.4928 13.6813 25.4928 13.0683 25.4928 11.8421M8.38753 9.21053L13.6507 13.1579M13.6507 13.1579L18.9138 9.21053M13.6507 13.1579V0M18.9138 3.94737H20.2296C22.7107 3.94737 23.9512 3.94737 24.722 4.71814C25.4928 5.48891 25.4928 6.72945 25.4928 9.21053V19.7368C25.4928 22.2179 25.4928 23.4585 24.722 24.2292C23.9512 25 22.7107 25 20.2296 25H7.07175C4.59067 25 3.35014 25 2.57936 24.2292C1.80859 23.4585 1.80859 22.2179 1.80859 19.7368V9.21053C1.80859 6.72945 1.80859 5.48891 2.57936 4.71814C3.35014 3.94737 4.59067 3.94737 7.07175 3.94737H8.38753" stroke="#0A0A0A" stroke-width="2.63158"/>
</svg>
