<svg width="141" height="141" viewBox="0 0 141 141" fill="none" xmlns="http://www.w3.org/2000/svg">
<g filter="url(#filter0_f_32_612)">
<path d="M41.683 60.5343L52.0383 60.27C54.9861 60.1948 57.6844 61.3261 59.66 63.2143L49.3047 63.4786C46.3569 63.5539 43.6586 62.4225 41.683 60.5343Z" stroke="#0A0A0A" stroke-width="9.06892"/>
<path d="M61.163 63.176C50.9006 63.4379 42.068 56.786 39.128 47.4609L39.8449 47.4426C50.1073 47.1807 58.94 53.8326 61.88 63.1577L61.163 63.176Z" stroke="#0A0A0A" stroke-width="15"/>
<path d="M50.0844 81.5583L50.3487 91.9136C50.4239 94.8614 49.2926 97.5597 47.4043 99.5353L47.14 89.1801C47.0648 86.2322 48.1961 83.5339 50.0844 81.5583Z" stroke="#0A0A0A" stroke-width="9.06892"/>
<path d="M47.4427 101.038C47.1808 90.7759 53.8326 81.9433 63.1577 79.0033L63.176 79.7202C63.4379 89.9827 56.7861 98.8153 47.461 101.755L47.4427 101.038Z" stroke="#0A0A0A" stroke-width="15"/>
<path d="M80.3489 41.683L80.6132 52.0382C80.6884 54.9861 79.5571 57.6844 77.6689 59.66L77.4046 49.3047C77.3293 46.3569 78.4606 43.6586 80.3489 41.683Z" stroke="#0A0A0A" stroke-width="9.06892"/>
<path d="M77.7072 61.163C77.4453 50.9005 84.0972 42.0679 93.4223 39.1279L93.4405 39.8448C93.7025 50.1073 87.0506 58.9399 77.7255 61.8799L77.7072 61.163Z" stroke="#0A0A0A" stroke-width="15"/>
<path d="M99.2002 80.3489L88.8449 80.6132C85.8971 80.6885 83.1988 79.5572 81.2232 77.6689L91.5785 77.4046C94.5263 77.3294 97.2246 78.4607 99.2002 80.3489Z" stroke="#0A0A0A" stroke-width="9.06892"/>
<path d="M79.7201 77.7072C89.9826 77.4453 98.8152 84.0972 101.755 93.4223L101.038 93.4406C90.7758 93.7025 81.9432 87.0506 79.0032 77.7255L79.7201 77.7072Z" stroke="#0A0A0A" stroke-width="15"/>
</g>
<defs>
<filter id="filter0_f_32_612" x="26.5663" y="26.5662" width="87.7506" height="87.7507" filterUnits="userSpaceOnUse" color-interpolation-filters="sRGB">
<feFlood flood-opacity="0" result="BackgroundImageFix"/>
<feBlend mode="normal" in="SourceGraphic" in2="BackgroundImageFix" result="shape"/>
<feGaussianBlur stdDeviation="2" result="effect1_foregroundBlur_32_612"/>
</filter>
</defs>
</svg>
