<svg width="23" height="29" viewBox="0 0 23 29" fill="none" xmlns="http://www.w3.org/2000/svg">
    <path opacity="0.7" d="M14.4347 23.0978L15.3416 22.1456H15.3416L14.4347 23.0978ZM8.56535 23.0978L7.6584 22.1456H7.6584L8.56535 23.0978ZM7.76349 23.8616L8.67043 24.8137H8.67043L7.76349 23.8616ZM15.2365 23.8615L14.3296 24.8137H14.3296L15.2365 23.8615ZM8.33333 8.03794C7.60708 8.03794 7.01833 8.62669 7.01833 9.35294C7.01833 10.0792 7.60708 10.6679 8.33333 10.6679V8.03794ZM14.6667 10.6679C15.3929 10.6679 15.9817 10.0792 15.9817 9.35294C15.9817 8.62669 15.3929 8.03794 14.6667 8.03794V10.6679ZM9.125 3.315H13.875V0.685H9.125V3.315ZM19.685 10.6372V20.4658H22.315V10.6372H19.685ZM3.315 20.4658V10.6372H0.685V20.4658H3.315ZM16.1435 22.9094L15.3416 22.1456L13.5277 24.05L14.3296 24.8137L16.1435 22.9094ZM7.6584 22.1456L6.85654 22.9094L8.67043 24.8137L9.47229 24.05L7.6584 22.1456ZM15.3416 22.1456C14.6626 21.4989 14.0649 20.9261 13.5275 20.5299C12.9671 20.1166 12.3114 19.77 11.5 19.77V22.4C11.51 22.4 11.6172 22.3889 11.9666 22.6465C12.339 22.9212 12.7979 23.3549 13.5277 24.05L15.3416 22.1456ZM9.47229 24.05C10.2021 23.3549 10.661 22.9212 11.0334 22.6465C11.3828 22.3889 11.49 22.4 11.5 22.4V19.77C10.6886 19.77 10.0329 20.1166 9.47245 20.5299C8.93512 20.9261 8.3374 21.4989 7.6584 22.1456L9.47229 24.05ZM0.685 20.4658C0.685 22.36 0.682648 23.9051 0.819779 25.0425C0.947942 26.1056 1.24551 27.3415 2.33506 27.9835L3.67013 25.7175C3.75709 25.7688 3.55336 25.7437 3.43087 24.7277C3.31735 23.7861 3.315 22.4342 3.315 20.4658H0.685ZM6.85655 22.9094C5.56824 24.1364 4.71647 24.9423 4.06865 25.3929C3.38755 25.8665 3.45166 25.5888 3.67013 25.7175L2.33506 27.9835C3.55614 28.7029 4.74793 28.1239 5.57024 27.5521C6.42584 26.957 7.45321 25.9731 8.67043 24.8137L6.85655 22.9094ZM19.685 20.4658C19.685 22.4342 19.6826 23.7861 19.5691 24.7277C19.4466 25.7437 19.2429 25.7688 19.3299 25.7175L20.6649 27.9835C21.7545 27.3415 22.0521 26.1056 22.1802 25.0425C22.3174 23.9051 22.315 22.36 22.315 20.4658H19.685ZM14.3296 24.8137C15.5468 25.9731 16.5742 26.957 17.4298 27.5521C18.2521 28.1239 19.4439 28.7029 20.6649 27.9835L19.3299 25.7175C19.5483 25.5888 19.6124 25.8665 18.9314 25.3929C18.2835 24.9423 17.4318 24.1364 16.1435 22.9094L14.3296 24.8137ZM13.875 3.315C15.5992 3.315 16.7324 3.31907 17.5725 3.45599C18.3448 3.58186 18.6878 3.7933 18.9422 4.10168L20.971 2.42809C20.1819 1.47159 19.1635 1.05058 17.9956 0.860236C16.8954 0.680931 15.5096 0.685 13.875 0.685V3.315ZM22.315 10.6372C22.315 8.63219 22.3169 7.01907 22.1766 5.75356C22.0344 4.47208 21.7298 3.34803 20.971 2.42809L18.9422 4.10168C19.2267 4.44663 19.4439 4.97293 19.5626 6.04347C19.6831 7.13 19.685 8.57059 19.685 10.6372H22.315ZM9.125 0.685C7.4904 0.685 6.10459 0.680931 5.00444 0.860236C3.83652 1.05058 2.81808 1.47159 2.02904 2.42809L4.05783 4.10168C4.31222 3.7933 4.65518 3.58186 5.4275 3.45599C6.26758 3.31907 7.40084 3.315 9.125 3.315V0.685ZM3.315 10.6372C3.315 8.57059 3.31691 7.13 3.43742 6.04347C3.55615 4.97293 3.77327 4.44663 4.05783 4.10168L2.02904 2.42809C1.27016 3.34803 0.965569 4.47208 0.823443 5.75356C0.683088 7.01907 0.685 8.63219 0.685 10.6372H3.315ZM8.33333 10.6679H14.6667V8.03794H8.33333V10.6679Z" fill="#0A0A0A"/>
</svg>
